<svg xmlns:dc="http://purl.org/dc/elements/1.1/" xmlns:cc="http://creativecommons.org/ns#" xmlns:rdf="http://www.w3.org/1999/02/22-rdf-syntax-ns#" xmlns:svg="http://www.w3.org/2000/svg" xmlns="http://www.w3.org/2000/svg" xmlns:sodipodi="http://sodipodi.sourceforge.net/DTD/sodipodi-0.dtd" xmlns:inkscape="http://www.inkscape.org/namespaces/inkscape" height="1000" width="1000" version="1.1" inkscape:version="0.48.4 r9939"><metadata><rdf:RDF><cc:Work rdf:about=""><dc:format>image/svg+xml</dc:format><dc:type rdf:resource="http://purl.org/dc/dcmitype/StillImage"/><dc:title/></cc:Work></rdf:RDF></metadata><defs/><path style="fill:#ffffff;fill-opacity:1;fill-rule:nonzero;stroke:#000000;stroke-width:0;stroke-linejoin:round;stroke-miterlimit:4;stroke-opacity:1;stroke-dasharray:none" d="M 76.7 1.2 C 34.9 1.2 1.2 32.4 1.2 71.2 L 1.2 928.8 C 1.2 967.6 34.9 998.8 76.7 998.8 L 923.3 998.8 C 965.1 998.8 998.8 967.6 998.8 928.8 L 998.8 71.2 C 998.8 32.4 965.1 1.2 923.3 1.2 L 76.7 1.2 z M 250.3 75 C 302.5 78.3 349.9 96.2 392.3 128.9 C 474 107.7 558.9 106.9 647.1 126.5 C 658.5 118.3 676.1 108.1 699.8 95.8 C 723.5 83.6 753.2 76.6 789.2 75 C 795.7 93 800.2 114.2 802.7 138.7 C 805.1 163.2 803.9 186.1 799 207.3 C 836.5 246.5 856.1 298.7 857.8 364.1 C 857.8 416.3 848.8 459.6 830.8 493.9 C 812.8 528.2 781 556.7 735.3 579.6 C 704.3 594.3 663.4 603.3 612.8 606.6 C 635.6 618 652.4 629.8 663 642.1 C 673.6 654.3 680.6 673.5 683.8 699.7 L 683.8 776.8 L 686.3 851.5 C 691.2 859.7 696.9 866.7 703.4 872.4 C 710 878.1 715.7 882.1 720.6 884.6 C 725.5 887 727.1 890.7 725.5 895.6 C 723.8 900.5 717.3 903 705.9 903 C 678.1 903 656.1 893.2 639.8 873.6 C 634.9 865.4 632.4 855.6 632.4 844.2 L 632.4 726.6 C 632.4 713.5 629.1 704.1 622.6 698.4 C 616.1 692.7 609.5 689 603 687.4 L 603 841.7 C 603 869.5 606.2 887.4 612.8 895.6 C 619.3 903.8 623.4 911.9 625.1 920.1 C 626.7 921.7 625.5 923 621.4 923.8 C 617.3 924.6 610.4 923.4 600.6 920.1 C 579.3 915.2 564.6 904.2 556.5 887.1 C 548.3 869.9 544.2 851.5 544.2 831.9 L 544.2 680.1 L 512.4 680.1 L 512.4 831.9 C 512.4 851.5 508.3 870.3 500.2 888.3 C 488.7 911.1 467.5 923.4 436.4 925 C 431.5 923.4 429.1 921.7 429.1 920.1 C 430.7 918.5 435.6 910.3 443.8 895.6 C 445.4 892.3 447.5 885.8 449.9 876 C 452.4 866.2 453.6 854.8 453.6 841.7 L 453.6 687.4 C 447 689 440.9 692.7 435.2 698.4 C 429.5 704.1 426.7 713.5 426.7 726.6 L 426.7 844.2 C 426.7 855.6 424.2 865.4 419.3 873.6 C 404.6 893.2 382.6 903 353.2 903 C 341.7 903 335.2 900.5 333.6 895.6 C 331.9 892.3 332.3 889.5 334.8 887.1 C 337.2 884.6 340.9 881.7 345.8 878.5 C 350.7 875.2 354 872.7 355.6 871.1 C 362.1 866.2 367 859.7 370.3 851.5 C 375.2 845 376.4 827.9 374 800.1 C 371.5 772.3 371.1 754.4 372.8 746.2 C 330.3 760.9 287 753.6 242.9 724.2 C 229.8 711.1 216.8 692.3 203.8 667.8 C 194 649.8 174.3 628.6 144.9 604.1 C 141.7 600.8 141.7 597.6 144.9 594.3 C 151.5 587.8 159.6 585.3 169.4 587 C 179.2 588.6 184.9 590.2 186.6 591.9 C 198 596.8 210.7 607.8 224.6 624.9 C 238.4 642.1 249.4 653.9 257.6 660.5 C 296.8 693.1 336.8 695.6 377.7 667.8 C 380.9 656.4 386.2 646.6 393.6 638.4 C 400.9 630.2 407.8 624.5 414.4 621.3 C 420.9 618 432.4 613.1 448.7 606.6 C 394.8 601.7 351.1 592.3 317.7 578.4 C 284.2 564.5 257.6 546.9 238 525.7 C 211.9 496.3 196 458 190.2 410.6 C 184.5 363.2 188.2 320 201.3 280.8 C 211.1 256.3 224.9 234.2 242.9 214.6 C 229.8 173.8 232.3 127.3 250.3 75 z "/></svg>